<svg height="48" width="48" xmlns="http://www.w3.org/2000/svg">
  <path d="m17.359382 36.015919 6.640629 11.500012.04101.0703 19.917975-11.499974-.041-.0703z" fill="#008da1"/>
  <path d="m10.720706 24.515907-6.6386751 11.500012-.041016.0703 19.9179791 11.499974.04102-.0703z" fill="#00a955"/>
  <path d="m4 13.015895v23.000024h.082031l13.279303-23.000024h-13.2793031z" fill="#ffc800"/>
  <path d="m23.958994 1.4455854-19.9179785 11.5000106.041015.0703h26.5586085l-6.640628-11.4999806z" fill="#ff8200"/>
  <path d="m24.041026 1.4455854-.04101.070291 13.279303 22.9999866 6.638676-11.500011.041-.0703z" fill="#ff5c43"/>
  <path d="m43.917991 13.015895-13.279306 23.000024h13.279306.08201v-23.000024z" fill="#b254d9"/>
  <path d="m21.000002 18.016251 8.000004 6.499996-8.000004 6.499997z" fill="#1ecade"/>
</svg>
